<?xml version="1.0" encoding="utf-8"?>
<!-- Generator: Adobe Illustrator 17.0.0, SVG Export Plug-In . SVG Version: 6.00 Build 0)  -->
<!DOCTYPE svg PUBLIC "-//W3C//DTD SVG 1.1//EN" "http://www.w3.org/Graphics/SVG/1.1/DTD/svg11.dtd">
<svg version="1.1" id="图层_1" xmlns="http://www.w3.org/2000/svg" xmlns:xlink="http://www.w3.org/1999/xlink" x="0px" y="0px"
	 width="140px" height="140px" viewBox="0 0 140 140" enable-background="new 0 0 140 140" xml:space="preserve">
<g>
	<defs>
		<polygon id="SVGID_1_" points="71.126,70.465 67.156,99.856 76.874,102.378 60.388,136.716 66.418,107.175 57.458,104.778 		"/>
	</defs>
	<use xlink:href="#SVGID_1_"  overflow="visible" fill="#040000"/>
	<clipPath id="SVGID_2_">
		<use xlink:href="#SVGID_1_"  overflow="visible"/>
	</clipPath>
	<rect x="56.112" y="58.916" clip-path="url(#SVGID_2_)" fill="#040000" width="19.72" height="73.563"/>
</g>
<g>
	<defs>
		<path id="SVGID_3_" d="M43.917,94.371l-4.478,18.116c-0.396,1.832,0.769,3.638,2.6,4.035c0.241,0.053,0.483,0.078,0.721,0.078
			c1.564,0,2.97-1.087,3.314-2.678l4.479-18.116c0.396-1.832-0.768-3.639-2.6-4.035c-0.242-0.053-0.485-0.078-0.723-0.078
			C45.67,91.694,44.261,92.782,43.917,94.371"/>
	</defs>
	<use xlink:href="#SVGID_3_"  overflow="visible" fill="#040000"/>
	<clipPath id="SVGID_4_">
		<use xlink:href="#SVGID_3_"  overflow="visible"/>
	</clipPath>
	<polygon clip-path="url(#SVGID_4_)" fill="#040000" points="36.733,91.694 50.949,91.694 50.949,129.88 39.043,116.6 	"/>
</g>
<g>
	<defs>
		<path id="SVGID_5_" d="M87.194,94.371l-3.901,18.693c-0.396,1.832,0.768,3.638,2.6,4.035c0.242,0.053,0.482,0.078,0.72,0.078
			c1.564,0,2.971-1.087,3.315-2.678l3.901-18.693c0.396-1.832-0.768-3.639-2.6-4.035c-0.243-0.053-0.485-0.078-0.724-0.078
			C88.943,91.694,87.537,92.782,87.194,94.371"/>
	</defs>
	<use xlink:href="#SVGID_5_"  overflow="visible" fill="#040000"/>
	<clipPath id="SVGID_6_">
		<use xlink:href="#SVGID_5_"  overflow="visible"/>
	</clipPath>
	<polygon clip-path="url(#SVGID_6_)" fill="#040000" points="80.009,91.694 94.225,91.694 97.112,117.178 82.896,117.178 	"/>
</g>
<g>
	<path fill="#040000" d="M32.048,38.766c-0.751,0.286-1.663,0.627-2.571,0.979c-11.096,4.31-17.478,14.997-15.647,26.196
		c1.904,11.639,11.587,19.872,23.778,20.117c5.511,0.111,11.026,0.026,16.539,0.085c3.118,0.033,5.96-0.568,5.904-4.361
		c-0.052-3.5-2.751-4.158-5.711-4.15c-5.513,0.018-11.027,0.054-16.539-0.052c-6.309-0.122-11.192-2.852-14.058-8.562
		c-3.78-7.528-0.832-16.42,6.58-20.381c7.18-3.837,15.981-1.215,20.49,6.283c1.587,2.639,3.472,4.43,6.463,2.727
		c3.019-1.717,2.454-4.413,0.958-7.005c-3.177-5.504-7.738-9.393-13.863-11.094c-2.694-0.748-3.596-1.933-3.369-4.718
		c0.912-11.259,8.33-21.299,19.095-24.685c11.401-3.586,21.679-1.214,29.77,7.729c8.45,9.34,9.647,20.063,4.449,31.493
		c-1.206,2.653-1.338,5.098,1.593,6.488c2.899,1.375,4.833-0.152,6.07-2.814c0.815-1.752,1.661-3.489,2.465-5.173
		c7.871,2.113,12.464,8.549,11.756,16.111c-0.694,7.409-6.793,13.457-14.301,13.733c-6.352,0.234-12.721,0.023-19.081,0.025
		c-2.932,0.001-5.141,1.175-5.087,4.358c0.048,2.896,2.038,4.127,4.864,4.126c6.502-0.004,13.011,0.231,19.505,0.003
		c11.339-0.398,20.695-8.914,22.442-20.095c1.704-10.906-4.542-21.928-15.014-25.705c-2.951-1.065-3.607-2.508-3.777-5.398
		C104.663,16.536,90.752,1.964,72.882,0.306c-18.444-1.711-34.999,9.925-39.304,27.793C32.757,31.505,32.562,35.061,32.048,38.766"
		/>
</g>
</svg>
