<?xml version="1.0" encoding="utf-8"?>
<!-- Generator: Adobe Illustrator 17.0.0, SVG Export Plug-In . SVG Version: 6.00 Build 0)  -->
<!DOCTYPE svg PUBLIC "-//W3C//DTD SVG 1.1//EN" "http://www.w3.org/Graphics/SVG/1.1/DTD/svg11.dtd">
<svg version="1.1" id="图层_1" xmlns="http://www.w3.org/2000/svg" xmlns:xlink="http://www.w3.org/1999/xlink" x="0px" y="0px"
	 width="140px" height="140px" viewBox="0 0 140 140" enable-background="new 0 0 140 140" xml:space="preserve">
<g>
	<g>
		<path fill="#040000" d="M75.358,23.137c0,2.961-2.4,5.361-5.361,5.361l0,0c-2.961,0-5.361-2.4-5.361-5.361V8.447
			c0-2.961,2.4-5.361,5.361-5.361l0,0c2.961,0,5.361,2.4,5.361,5.361V23.137z"/>
		<path fill="#040000" d="M75.358,130.977c0,2.961-2.4,5.361-5.361,5.361l0,0c-2.961,0-5.361-2.4-5.361-5.361v-14.69
			c0-2.961,2.4-5.361,5.361-5.361l0,0c2.961,0,5.361,2.4,5.361,5.361V130.977z"/>
	</g>
	<g>
		<path fill="#040000" d="M116.834,75.073c-2.961,0-5.361-2.4-5.361-5.361l0,0c0-2.961,2.4-5.361,5.361-5.361h14.69
			c2.961,0,5.361,2.4,5.361,5.361l0,0c0,2.961-2.4,5.361-5.361,5.361H116.834z"/>
		<path fill="#040000" d="M8.994,75.073c-2.961,0-5.361-2.4-5.361-5.361l0,0c0-2.961,2.4-5.361,5.361-5.361h14.69
			c2.961,0,5.361,2.4,5.361,5.361l0,0c0,2.961-2.4,5.361-5.361,5.361H8.994z"/>
	</g>
</g>
<g>
	<g>
		<path fill="#040000" d="M106.798,40.384c-2.094,2.094-5.488,2.094-7.582,0l0,0c-2.094-2.094-2.094-5.488,0-7.582l10.387-10.387
			c2.094-2.094,5.488-2.094,7.582,0l0,0c2.094,2.094,2.094,5.488,0,7.582L106.798,40.384z"/>
		<path fill="#040000" d="M30.544,116.639c-2.094,2.094-5.488,2.094-7.582,0l0,0c-2.094-2.094-2.094-5.488,0-7.582l10.387-10.387
			c2.094-2.094,5.488-2.094,7.582,0l0,0c2.094,2.094,2.094,5.488,0,7.582L30.544,116.639z"/>
	</g>
	<g>
		<path fill="#040000" d="M99.401,106.436c-2.094-2.094-2.094-5.488,0-7.582l0,0c2.094-2.094,5.488-2.094,7.582,0l10.387,10.387
			c2.094,2.094,2.094,5.488,0,7.582l0,0c-2.094,2.094-5.488,2.094-7.582,0L99.401,106.436z"/>
		<path fill="#040000" d="M23.147,30.182c-2.094-2.094-2.094-5.488,0-7.582l0,0c2.094-2.094,5.488-2.094,7.582,0l10.387,10.387
			c2.094,2.094,2.094,5.488,0,7.582l0,0c-2.094,2.094-5.488,2.094-7.582,0L23.147,30.182z"/>
	</g>
</g>
<path fill="#040000" d="M70.312,104.212c-19.121,0-34.677-15.556-34.677-34.677s15.556-34.677,34.677-34.677
	s34.677,15.556,34.677,34.677S89.433,104.212,70.312,104.212z M70.312,43.278c-14.479,0-26.257,11.779-26.257,26.257
	s11.779,26.257,26.257,26.257S96.57,84.014,96.57,69.535S84.791,43.278,70.312,43.278z"/>
</svg>
