<?xml version="1.0" encoding="utf-8"?>
<!-- Generator: Adobe Illustrator 17.0.0, SVG Export Plug-In . SVG Version: 6.00 Build 0)  -->
<!DOCTYPE svg PUBLIC "-//W3C//DTD SVG 1.1//EN" "http://www.w3.org/Graphics/SVG/1.1/DTD/svg11.dtd">
<svg version="1.1" id="图层_1" xmlns="http://www.w3.org/2000/svg" xmlns:xlink="http://www.w3.org/1999/xlink" x="0px" y="0px"
	 width="140px" height="140px" viewBox="0 0 140 140" enable-background="new 0 0 140 140" xml:space="preserve">
<g>
	<defs>
		<path id="SVGID_1_" d="M90.69,45.675c-1.031,0.025-1.849,1.026-1.828,2.235c0.021,1.194,0.853,2.145,1.867,2.145h0.039
			c5.827-0.164,11.042,4.621,12.337,11.33c0.731,3.787,0.16,7.681-1.607,10.966c-1.767,3.283-4.52,5.564-7.75,6.422
			c-0.904,0.239-1.825,0.36-2.74,0.361h-64.95c-1.032,0-1.868,0.982-1.868,2.19c0,1.209,0.836,2.19,1.868,2.19H91.01h0.002
			c1.189-0.002,2.386-0.16,3.559-0.471c4.204-1.115,7.785-4.083,10.086-8.356c2.3-4.275,3.043-9.342,2.09-14.269
			c-1.661-8.608-8.314-14.746-15.749-14.746C90.896,45.671,90.794,45.672,90.69,45.675"/>
	</defs>
	<use xlink:href="#SVGID_1_"  overflow="visible" fill="#040000"/>
	<clipPath id="SVGID_2_">
		<use xlink:href="#SVGID_1_"  overflow="visible"/>
	</clipPath>
	<rect x="24.19" y="45.671" clip-path="url(#SVGID_2_)" fill="#040000" width="83.51" height="37.843"/>
</g>
<g>
	<defs>
		<path id="SVGID_3_" d="M86.586,44.986c-2.288,0.056-4.114,2.101-4.072,4.555c0.043,2.461,1.873,4.388,4.205,4.388l0.068-0.001
			c4.323-0.111,8.182,3.543,9.18,8.713c0.583,3.022,0.133,6.12-1.269,8.725c-1.345,2.498-3.402,4.223-5.789,4.858
			c-0.65,0.172-1.312,0.26-1.964,0.261H25.799c-2.299,0-4.169,2.006-4.169,4.472s1.87,4.472,4.169,4.472h61.154
			c1.327-0.001,2.661-0.178,3.965-0.523c4.608-1.221,8.514-4.438,11-9.055c2.427-4.512,3.213-9.85,2.212-15.032
			c-1.781-9.224-8.964-15.837-17.168-15.837C86.837,44.981,86.711,44.983,86.586,44.986"/>
	</defs>
	<use xlink:href="#SVGID_3_"  overflow="visible" fill="#040000"/>
	<clipPath id="SVGID_4_">
		<use xlink:href="#SVGID_3_"  overflow="visible"/>
	</clipPath>
	<rect x="21.63" y="44.981" clip-path="url(#SVGID_4_)" fill="#040000" width="83.501" height="40.447"/>
</g>
<g>
	<defs>
		<path id="SVGID_5_" d="M109.94,38.37c-1.031,0.027-1.85,1.028-1.827,2.238c0.021,1.207,0.821,2.163,1.908,2.141
			c0.136-0.004,0.27-0.005,0.407-0.005c9.184,0,17.269,7.974,19.316,19.131c2.429,13.238-4.291,26.435-14.981,29.418
			c-1.432,0.401-2.898,0.605-4.357,0.606H44.928c-1.032,0-1.868,0.981-1.868,2.19c0,1.209,0.836,2.19,1.868,2.19h65.479h0.001
			c1.749-0.002,3.506-0.245,5.221-0.726c12.649-3.531,20.619-19.051,17.766-34.6c-2.413-13.157-12.009-22.592-22.922-22.592
			C110.296,38.363,110.119,38.365,109.94,38.37"/>
	</defs>
	<use xlink:href="#SVGID_5_"  overflow="visible" fill="#040000"/>
	<clipPath id="SVGID_6_">
		<use xlink:href="#SVGID_5_"  overflow="visible"/>
	</clipPath>
	<rect x="43.061" y="38.363" clip-path="url(#SVGID_6_)" fill="#040000" width="93.188" height="57.918"/>
</g>
<g>
	<defs>
		<path id="SVGID_7_" d="M109.873,35.811c-2.43,0.063-4.368,2.238-4.319,4.844c0.024,1.327,0.553,2.584,1.453,3.45
			c0.831,0.8,1.924,1.219,3.09,1.205c0.111-0.003,0.22-0.004,0.331-0.004c7.922,0,14.987,7.163,16.798,17.033
			c2.196,11.97-3.703,23.854-13.152,26.491c-1.208,0.337-2.442,0.51-3.667,0.511H44.928c-2.441,0-4.428,2.13-4.428,4.75
			c0,2.619,1.987,4.75,4.428,4.75h65.483c1.983-0.002,3.972-0.278,5.907-0.82c13.891-3.878,22.682-20.712,19.596-37.528
			c-2.64-14.396-13.265-24.692-25.395-24.692C110.304,35.801,110.088,35.805,109.873,35.811"/>
	</defs>
	<use xlink:href="#SVGID_7_"  overflow="visible" fill="#040000"/>
	<clipPath id="SVGID_8_">
		<use xlink:href="#SVGID_7_"  overflow="visible"/>
	</clipPath>
	<rect x="40.501" y="35.801" clip-path="url(#SVGID_8_)" fill="#040000" width="98.499" height="63.04"/>
</g>
<g>
	<defs>
		<path id="SVGID_9_" d="M10.983,64.793c-1.032,0-1.868,0.98-1.868,2.19c0,1.209,0.837,2.19,1.868,2.19h48.838
			c1.032,0,1.868-0.981,1.868-2.19c0-1.209-0.837-2.19-1.868-2.19H10.983z"/>
	</defs>
	<use xlink:href="#SVGID_9_"  overflow="visible" fill="#040000"/>
	<clipPath id="SVGID_10_">
		<use xlink:href="#SVGID_9_"  overflow="visible"/>
	</clipPath>
	<rect x="9.115" y="64.794" clip-path="url(#SVGID_10_)" fill="#040000" width="52.574" height="4.38"/>
</g>
<g>
	<defs>
		<path id="SVGID_11_" d="M10.983,61.588c-2.441,0-4.428,2.131-4.428,4.75c0,2.619,1.987,4.75,4.428,4.75h48.838
			c2.441,0,4.428-2.13,4.428-4.75c0-2.619-1.987-4.75-4.428-4.75H10.983z"/>
	</defs>
	<use xlink:href="#SVGID_11_"  overflow="visible" fill="#040000"/>
	<clipPath id="SVGID_12_">
		<use xlink:href="#SVGID_11_"  overflow="visible"/>
	</clipPath>
	<rect x="6.556" y="61.588" clip-path="url(#SVGID_12_)" fill="#040000" width="57.693" height="9.5"/>
</g>
</svg>
