<?xml version="1.0" encoding="utf-8"?>
<!-- Generator: Adobe Illustrator 17.0.0, SVG Export Plug-In . SVG Version: 6.00 Build 0)  -->
<!DOCTYPE svg PUBLIC "-//W3C//DTD SVG 1.1//EN" "http://www.w3.org/Graphics/SVG/1.1/DTD/svg11.dtd">
<svg version="1.1" id="图层_1" xmlns="http://www.w3.org/2000/svg" xmlns:xlink="http://www.w3.org/1999/xlink" x="0px" y="0px"
	 width="140px" height="140px" viewBox="0 0 140 140" enable-background="new 0 0 140 140" xml:space="preserve">
<g>
	<defs>
		<path id="SVGID_1_" d="M55.889,75.595c3.883-2.432,2.419-5.865,0.585-8.948c-3.821-6.419-9.367-10.825-16.527-12.768
			c-3.144-0.853-4.141-2.183-3.827-5.286c1.454-14.405,8.821-24.683,22.262-29.665c13.264-4.918,25.677-2.217,35.637,8.018
			c10.056,10.335,12.393,22.664,7.344,36.268c-0.473,1.274-1.629,2.58-1.474,3.738c0.301,2.251,0.664,5.21,2.17,6.421
			c2.421,1.946,5.249,0.709,6.804-2.067c1.309-2.339,2.305-4.852,3.559-7.544c10.168,3.405,15.515,11.607,14,20.803
			c-1.477,8.965-9.012,15.31-18.831,15.319c-25.162,0.026-50.324-0.058-75.486-0.277c-9.745-0.085-17.026-6.495-18.528-15.698
			c-1.313-8.046,3.618-16.663,11.295-19.738c8.529-3.416,17.705-0.301,22.899,8.073c1.467,2.364,3.051,4.309,5.256,4.309
			C53.878,76.553,54.823,76.263,55.889,75.595 M25.914,48.871c-0.149,2.437-0.143,4.161-3.215,5.303
			C8.653,59.394,1.004,72.592,3.584,86.296c2.645,14.053,14.077,23.397,29.081,23.543c12.409,0.119,24.82,0.024,37.231,0.024v0.212
			c6.29,0,12.58-0.006,18.87,0.001c6.46,0.008,12.922,0.122,19.38,0.021c14.441-0.225,26.023-9.976,28.359-23.748
			c2.294-13.523-5.26-26.588-18.545-31.559c-2.785-1.043-3.766-2.238-3.937-5.327c-1.005-18.24-9.743-31.752-26.436-39.192
			C81.667,7.633,75.62,6.41,69.732,6.41C47.404,6.412,27.422,24.021,25.914,48.871"/>
	</defs>
	<use xlink:href="#SVGID_1_"  overflow="visible" fill="#040000"/>
	<clipPath id="SVGID_2_">
		<use xlink:href="#SVGID_1_"  overflow="visible"/>
	</clipPath>
	<rect x="1.004" y="6.41" clip-path="url(#SVGID_2_)" fill="#040000" width="137.794" height="103.789"/>
</g>
</svg>
