<?xml version="1.0" encoding="utf-8"?>
<!-- Generator: Adobe Illustrator 17.0.0, SVG Export Plug-In . SVG Version: 6.00 Build 0)  -->
<!DOCTYPE svg PUBLIC "-//W3C//DTD SVG 1.1//EN" "http://www.w3.org/Graphics/SVG/1.1/DTD/svg11.dtd">
<svg version="1.1" id="图层_1" xmlns="http://www.w3.org/2000/svg" xmlns:xlink="http://www.w3.org/1999/xlink" x="0px" y="0px"
	 width="140px" height="140px" viewBox="0 0 140 140" enable-background="new 0 0 140 140" xml:space="preserve">
<g>
	<defs>
		<path id="SVGID_1_" d="M56.964,64.846c1.379-1.204,2.238-4.665,1.516-6.322c-2.925-6.706-8.255-11.356-15.318-13.257
			c-3.663-0.987-4.238-2.755-3.852-5.941c1.562-12.937,8.327-22.012,20.56-26.313c12.24-4.304,23.452-1.632,32.433,7.748
			c8.977,9.375,10.954,20.567,6.443,32.767c-1.271,3.438-4.017,6.955,0.872,9.61c3.085,1.675,5.359-0.274,7.893-6.312
			c0.352-0.838,0.753-1.654,1.107-2.427c8.426,1.667,13.643,8.657,13.071,17.24c-0.546,8.192-7.149,15.09-15.361,15.338
			c-9.616,0.291-19.247,0.074-28.872,0.051c-14.128-0.032-28.257,0.034-42.382-0.177c-8.86-0.132-15.609-6.518-16.632-15.21
			c-0.914-7.758,4.331-15.434,12.109-17.721c6.992-2.055,14.721,0.82,18.718,6.973c0.422,0.649,0.804,1.326,1.186,2
			c1.029,1.816,2.522,2.957,4.077,2.957C55.345,65.849,56.175,65.537,56.964,64.846 M30.016,39.953
			c-0.182,3.322-1.267,4.661-4.343,5.852C14.099,50.288,7.495,61.842,9.313,73.597c1.909,12.342,11.573,22.162,23.703,22.406
			c24.81,0.502,49.641,0.582,74.453,0.207c12.32-0.186,22.667-11.264,23.499-23.573c0.903-13.353-5.845-22.712-20.529-28.168
			c-0.058-1.226-0.118-2.149-0.144-3.072C109.686,19.378,92.603,2.272,70.795,1.847c-0.274-0.005-0.546-0.008-0.819-0.008
			C48.584,1.84,31.204,18.212,30.016,39.953"/>
	</defs>
	<use xlink:href="#SVGID_1_"  overflow="visible" fill="#040000"/>
	<clipPath id="SVGID_2_">
		<use xlink:href="#SVGID_1_"  overflow="visible"/>
	</clipPath>
</g>
<g>
	<defs>
		<path id="SVGID_3_" d="M35.763,111.281v21.866c0,2.813,2.288,5.1,5.1,5.1c2.813,0,5.101-2.287,5.101-5.1v-21.866
			c0-2.812-2.288-5.101-5.101-5.101C38.05,106.18,35.763,108.468,35.763,111.281"/>
	</defs>
	<use xlink:href="#SVGID_3_"  overflow="visible" fill="#040000"/>
	<clipPath id="SVGID_4_">
		<use xlink:href="#SVGID_3_"  overflow="visible"/>
	</clipPath>
	<rect x="35.763" y="106.18" clip-path="url(#SVGID_4_)" fill="#040000" width="10.201" height="32.067"/>
</g>
<g>
	<defs>
		<path id="SVGID_5_" d="M57.27,111.281v10.933c0,2.813,2.288,5.1,5.101,5.1c2.813,0,5.101-2.287,5.101-5.1v-10.933
			c0-2.812-2.288-5.101-5.101-5.101C59.559,106.18,57.27,108.468,57.27,111.281"/>
	</defs>
	<use xlink:href="#SVGID_5_"  overflow="visible" fill="#040000"/>
	<clipPath id="SVGID_6_">
		<use xlink:href="#SVGID_5_"  overflow="visible"/>
	</clipPath>
	<rect x="57.27" y="106.18" clip-path="url(#SVGID_6_)" fill="#040000" width="10.202" height="21.134"/>
</g>
<g>
	<defs>
		<path id="SVGID_7_" d="M79.784,111.281v21.866c0,2.813,2.288,5.1,5.101,5.1s5.1-2.287,5.1-5.1v-21.866
			c0-2.812-2.288-5.101-5.1-5.101S79.784,108.468,79.784,111.281"/>
	</defs>
	<use xlink:href="#SVGID_7_"  overflow="visible" fill="#040000"/>
	<clipPath id="SVGID_8_">
		<use xlink:href="#SVGID_7_"  overflow="visible"/>
	</clipPath>
	<rect x="79.784" y="106.18" clip-path="url(#SVGID_8_)" fill="#040000" width="10.201" height="32.067"/>
</g>
<g>
	<defs>
		<path id="SVGID_9_" d="M101.293,111.281v10.933c0,2.813,2.288,5.1,5.1,5.1c2.812,0,5.101-2.287,5.101-5.1v-10.933
			c0-2.812-2.288-5.101-5.101-5.101C103.581,106.18,101.293,108.468,101.293,111.281"/>
	</defs>
	<use xlink:href="#SVGID_9_"  overflow="visible" fill="#040000"/>
	<clipPath id="SVGID_10_">
		<use xlink:href="#SVGID_9_"  overflow="visible"/>
	</clipPath>
	<rect x="101.293" y="106.18" clip-path="url(#SVGID_10_)" fill="#040000" width="10.201" height="21.134"/>
</g>
</svg>
