<?xml version="1.0" encoding="utf-8"?>
<!-- Generator: Adobe Illustrator 17.0.0, SVG Export Plug-In . SVG Version: 6.00 Build 0)  -->
<!DOCTYPE svg PUBLIC "-//W3C//DTD SVG 1.1//EN" "http://www.w3.org/Graphics/SVG/1.1/DTD/svg11.dtd">
<svg version="1.1" id="图层_1" xmlns="http://www.w3.org/2000/svg" xmlns:xlink="http://www.w3.org/1999/xlink" x="0px" y="0px"
	 width="140px" height="140px" viewBox="0 0 140 140" enable-background="new 0 0 140 140" xml:space="preserve">
<g>
	<defs>
		<path id="SVGID_1_" d="M57.666,58.295c1.214-1.061,1.97-4.108,1.334-5.565c-2.575-5.903-7.266-9.996-13.484-11.67
			c-3.225-0.868-3.731-2.424-3.392-5.229c1.375-11.388,7.33-19.377,18.098-23.164c10.775-3.787,20.644-1.437,28.55,6.821
			c7.902,8.252,9.643,18.105,5.672,28.843c-1.12,3.027-3.537,6.123,0.767,8.46c2.716,1.474,4.717-0.242,6.948-5.557
			c0.31-0.737,0.663-1.455,0.974-2.136c7.418,1.468,12.01,7.621,11.507,15.176c-0.481,7.213-6.293,13.284-13.522,13.502
			c-8.464,0.257-16.943,0.065-25.415,0.045c-12.437-0.029-24.874,0.03-37.308-0.156c-7.799-0.117-13.74-5.737-14.641-13.389
			c-0.804-6.83,3.812-13.586,10.659-15.599c6.154-1.81,12.958,0.721,16.477,6.137c0.372,0.572,0.708,1.168,1.044,1.761
			c0.906,1.598,2.221,2.603,3.59,2.603C56.242,59.177,56.972,58.903,57.666,58.295 M33.945,36.383
			c-0.16,2.925-1.116,4.102-3.823,5.15c-10.189,3.946-16.002,14.117-14.402,24.465c1.68,10.863,10.187,19.507,20.865,19.723
			c21.84,0.441,43.697,0.512,65.539,0.182c10.844-0.164,19.953-9.915,20.686-20.75c0.795-11.755-5.146-19.993-18.072-24.797
			c-0.051-1.079-0.104-1.891-0.127-2.704C104.076,18.27,89.038,3.213,69.841,2.84c-0.242-0.005-0.48-0.007-0.721-0.007
			C50.29,2.834,34.992,17.246,33.945,36.383"/>
	</defs>
	<use xlink:href="#SVGID_1_"  overflow="visible"/>
	<clipPath id="SVGID_2_">
		<use xlink:href="#SVGID_1_"  overflow="visible"/>
	</clipPath>
	<rect x="14.121" y="2.833" clip-path="url(#SVGID_2_)" width="109.484" height="83.401"/>
</g>
<polygon points="37.117,102.687 34.465,98.094 37.117,93.501 42.42,93.501 45.072,98.094 42.42,102.687 "/>
<polygon points="67.079,102.687 64.427,98.094 67.079,93.501 72.382,93.501 75.034,98.094 72.382,102.687 "/>
<polygon points="67.079,132.936 64.427,128.343 67.079,123.75 72.382,123.75 75.034,128.343 72.382,132.936 "/>
<polygon points="97.04,102.687 94.389,98.094 97.04,93.501 102.344,93.501 104.995,98.094 102.344,102.687 "/>
<polygon points="52.579,117.187 49.927,112.594 52.579,108.001 57.882,108.001 60.534,112.594 57.882,117.187 "/>
<polygon points="82.54,117.187 79.889,112.594 82.54,108.001 87.844,108.001 90.495,112.594 87.844,117.187 "/>
</svg>
