<?xml version="1.0" encoding="utf-8"?>
<!-- Generator: Adobe Illustrator 17.0.0, SVG Export Plug-In . SVG Version: 6.00 Build 0)  -->
<!DOCTYPE svg PUBLIC "-//W3C//DTD SVG 1.1//EN" "http://www.w3.org/Graphics/SVG/1.1/DTD/svg11.dtd">
<svg version="1.1" id="图层_1" xmlns="http://www.w3.org/2000/svg" xmlns:xlink="http://www.w3.org/1999/xlink" x="0px" y="0px"
	 width="140px" height="140px" viewBox="0 0 140 140" enable-background="new 0 0 140 140" xml:space="preserve">
<g>
	<g>
		<path fill="#040000" d="M74.727,31.724c0,2.577-2.089,4.666-4.666,4.666l0,0c-2.577,0-4.666-2.089-4.666-4.666V18.94
			c0-2.577,2.089-4.666,4.666-4.666l0,0c2.577,0,4.666,2.089,4.666,4.666V31.724z"/>
	</g>
	<g>
		<path fill="#040000" d="M110.821,76.923c-2.577,0-4.666-2.089-4.666-4.666l0,0c0-2.577,2.089-4.666,4.666-4.666h12.784
			c2.577,0,4.666,2.089,4.666,4.666l0,0c0,2.577-2.089,4.666-4.666,4.666H110.821z"/>
		<path fill="#040000" d="M16.971,76.923c-2.577,0-4.666-2.089-4.666-4.666l0,0c0-2.577,2.089-4.666,4.666-4.666h12.784
			c2.577,0,4.666,2.089,4.666,4.666l0,0c0,2.577-2.089,4.666-4.666,4.666H16.971z"/>
	</g>
</g>
<g>
	<g>
		<path fill="#040000" d="M102.088,46.734c-1.822,1.822-4.776,1.822-6.599,0l0,0c-1.822-1.822-1.822-4.776,0-6.599l9.04-9.04
			c1.822-1.822,4.776-1.822,6.599,0l0,0c1.822,1.822,1.822,4.776,0,6.599L102.088,46.734z"/>
	</g>
	<g>
		<path fill="#040000" d="M29.288,37.855c-1.822-1.822-1.822-4.776,0-6.599l0,0c1.822-1.822,4.776-1.822,6.599,0l9.04,9.04
			c1.822,1.822,1.822,4.776,0,6.599l0,0c-1.822,1.822-4.776,1.822-6.599,0L29.288,37.855z"/>
	</g>
</g>
<path fill="#040000" d="M50.033,94.413c-6.065-5.524-9.877-13.48-9.877-22.31c0-16.64,13.538-30.179,30.179-30.179
	s30.179,13.538,30.179,30.179c0,8.32-3.385,15.865-8.849,21.329C86.2,98.897,55.398,99.299,50.033,94.413z M70.335,49.802
	c-12.297,0-22.302,10.004-22.302,22.302s10.004,22.302,22.302,22.302S92.637,84.4,92.637,72.103S82.632,49.802,70.335,49.802z"/>
<path fill="#040000" d="M128.867,94.411c0,2.577-2.089,4.666-4.666,4.666H16.358c-2.577,0-4.666-2.089-4.666-4.666l0,0
	c0-2.577,2.089-4.666,4.666-4.666h107.844C126.778,89.745,128.867,91.834,128.867,94.411L128.867,94.411z"/>
<path fill="#040000" d="M128.867,112.74c0,2.577-2.089,4.666-4.666,4.666H16.358c-2.577,0-4.666-2.089-4.666-4.666l0,0
	c0-2.577,2.089-4.666,4.666-4.666h107.844C126.778,108.074,128.867,110.163,128.867,112.74L128.867,112.74z"/>
</svg>
