<?xml version="1.0" encoding="utf-8"?>
<!-- Generator: Adobe Illustrator 17.0.0, SVG Export Plug-In . SVG Version: 6.00 Build 0)  -->
<!DOCTYPE svg PUBLIC "-//W3C//DTD SVG 1.1//EN" "http://www.w3.org/Graphics/SVG/1.1/DTD/svg11.dtd">
<svg version="1.1" id="图层_1" xmlns="http://www.w3.org/2000/svg" xmlns:xlink="http://www.w3.org/1999/xlink" x="0px" y="0px"
	 width="60px" height="60px" viewBox="0 0 60 60" enable-background="new 0 0 60 60" xml:space="preserve">
<g>
	<path fill="#DE2726" d="M47.438,29.019c0-9.615-7.823-17.438-17.438-17.438s-17.438,7.823-17.438,17.438
		c0,9.615,7.823,17.438,17.438,17.438S47.438,38.635,47.438,29.019z M30,43.388c-7.923,0-14.369-6.446-14.369-14.369
		S22.077,14.651,30,14.651c7.923,0,14.369,6.446,14.369,14.369S37.923,43.388,30,43.388z M43.791,11.291
		c-0.668-0.521-1.632-0.401-2.153,0.268c-0.521,0.669-0.401,1.633,0.268,2.154c4.758,3.706,7.486,9.285,7.486,15.307
		c0,6.085-2.775,11.7-7.612,15.405c-0.673,0.515-0.801,1.478-0.285,2.151c0.302,0.394,0.758,0.602,1.219,0.602
		c0.326,0,0.654-0.103,0.932-0.316c5.602-4.29,8.815-10.793,8.815-17.841C52.46,22.044,49.3,15.582,43.791,11.291z M18.221,44.425
		c-4.838-3.705-7.612-9.32-7.612-15.405c0-5.831,2.589-11.298,7.102-15.001c0.655-0.537,0.751-1.504,0.213-2.16
		c-0.537-0.655-1.504-0.751-2.16-0.213c-5.227,4.288-8.225,10.62-8.225,17.373c0,7.048,3.213,13.551,8.815,17.841
		c0.278,0.213,0.606,0.316,0.932,0.316c0.461,0,0.917-0.207,1.219-0.602C19.022,45.903,18.894,44.94,18.221,44.425z M20.981,22.546
		l-2.926,11.842h2.314l0.668-2.459h2.609l0.654,2.459h2.314l-2.926-11.842H20.981z M21.567,29.626l0.758-3.184l0.851,3.184H21.567z
		 M27.159,22.546v11.842h5.972l1.106-1.123v-3.794l-1.106-1.106l1.106-1.106v-3.607l-1.106-1.106H27.159z M31.991,31.717
		l-0.425,0.408h-2.161v-2.569h2.161l0.425,0.425V31.717z M31.991,26.885l-0.425,0.425h-2.161v-2.518h2.161l0.425,0.425V26.885z
		 M41.776,25.966v-2.314l-1.106-1.106h-4.322l-1.106,1.106v3.709l4.27,2.892v1.463l-0.408,0.425h-1.191l-0.425-0.425v-0.749h-2.246
		v2.314l1.106,1.106h4.305l1.106-1.106h0.017v-4.168l-4.288-2.875v-1.021l0.425-0.425h1.191l0.408,0.425v0.749H41.776z"/>
</g>
</svg>
