<?xml version="1.0" encoding="utf-8"?>
<!-- Generator: Adobe Illustrator 17.0.0, SVG Export Plug-In . SVG Version: 6.00 Build 0)  -->
<!DOCTYPE svg PUBLIC "-//W3C//DTD SVG 1.1//EN" "http://www.w3.org/Graphics/SVG/1.1/DTD/svg11.dtd">
<svg version="1.1" id="图层_1" xmlns="http://www.w3.org/2000/svg" xmlns:xlink="http://www.w3.org/1999/xlink" x="0px" y="0px"
	 width="60px" height="60px" viewBox="0 0 60 60" enable-background="new 0 0 60 60" xml:space="preserve">
<path fill="#DE2726" d="M44.865,8.405c-3.151,0-5.705,2.554-5.705,5.705c0,3.151,2.554,5.705,5.705,5.705
	c3.151,0,5.705-2.554,5.705-5.705C50.571,10.959,48.016,8.405,44.865,8.405z M33.283,29.216c-0.48-1.167-1.818-1.721-2.98-1.241
	c-1.166,0.48-1.721,1.814-1.241,2.98l7.988,19.398c0.363,0.881,1.215,1.414,2.112,1.414c0.29,0,0.584-0.056,0.868-0.173
	c1.166-0.48,1.72-1.814,1.241-2.98L33.283,29.216z M19.03,34.398c-1.07,0-2.073,0.517-2.695,1.387l-6,11.375
	c-1.063,1.489-0.719,3.557,0.77,4.62c0.584,0.417,1.257,0.617,1.923,0.617c1.033,0,2.051-0.482,2.697-1.387l5.009-9.988h11.464
	l-2.728-6.624H19.03z M46.966,21.44c-1.606-0.965-3.691-0.442-4.655,1.164l-7.073,9.308l3.067,7.448
	c0.405-0.273,0.756-0.629,1.016-1.062l8.81-12.203C49.094,24.489,48.573,22.404,46.966,21.44z M26.608,27.803
	c5.672,0,10.27-4.598,10.27-10.27c0-5.672-4.598-10.27-10.27-10.27c-5.672,0-10.27,4.598-10.27,10.27
	C16.338,23.205,20.936,27.803,26.608,27.803z"/>
</svg>
