<?xml version="1.0" encoding="utf-8"?>
<!-- Generator: Adobe Illustrator 17.0.0, SVG Export Plug-In . SVG Version: 6.00 Build 0)  -->
<!DOCTYPE svg PUBLIC "-//W3C//DTD SVG 1.1//EN" "http://www.w3.org/Graphics/SVG/1.1/DTD/svg11.dtd">
<svg version="1.1" id="图层_1" xmlns="http://www.w3.org/2000/svg" xmlns:xlink="http://www.w3.org/1999/xlink" x="0px" y="0px"
	 width="60px" height="60px" viewBox="0 0 60 60" enable-background="new 0 0 60 60" xml:space="preserve">
<g>
	<g>
		<path fill="#0C6BB0" d="M31.681,13.517c-0.664,0-1.357,0.043-2.061,0.126c-0.538,0.064-1.012,0.383-1.274,0.857
			c-2.816,5.1-4.304,10.886-4.304,16.735c0,5.514,1.266,10.797,3.763,15.702c0.246,0.483,0.709,0.818,1.245,0.9
			c0.865,0.132,1.75,0.2,2.631,0.2c9.517,0,22.491-7.743,22.491-17.26S41.198,13.517,31.681,13.517z M31.681,44.673
			c-0.423,0-0.848-0.019-1.269-0.057c-1.994-4.201-3.005-8.698-3.005-13.38c0-4.985,1.197-9.92,3.469-14.329
			c0.272-0.017,0.539-0.025,0.805-0.025c7.662,0,19.126,6.234,19.126,13.895C50.807,38.439,39.343,44.673,31.681,44.673z
			 M7.143,19.001h16.563c0.929,0,1.682-0.753,1.682-1.682c0-0.929-0.753-1.682-1.682-1.682H7.143c-0.929,0-1.682,0.753-1.682,1.682
			C5.46,18.248,6.214,19.001,7.143,19.001z M7.143,25.73h14.544c0.929,0,1.682-0.753,1.682-1.682c0-0.929-0.753-1.682-1.682-1.682
			H7.143c-0.929,0-1.682,0.753-1.682,1.682C5.46,24.977,6.214,25.73,7.143,25.73z M23.706,42.553H7.143
			c-0.929,0-1.682,0.753-1.682,1.682c0,0.929,0.753,1.682,1.682,1.682h16.563c0.929,0,1.682-0.753,1.682-1.682
			C25.388,43.307,24.635,42.553,23.706,42.553z M7.143,39.189h14.544c0.929,0,1.682-0.753,1.682-1.682
			c0-0.929-0.753-1.682-1.682-1.682H7.143c-0.929,0-1.682,0.753-1.682,1.682C5.46,38.436,6.214,39.189,7.143,39.189z M7.143,32.459
			h14.208c0.929,0,1.682-0.753,1.682-1.682c0-0.929-0.753-1.682-1.682-1.682H7.143c-0.929,0-1.682,0.753-1.682,1.682
			C5.46,31.706,6.214,32.459,7.143,32.459z"/>
	</g>
	<g>
		<path fill="#0C6BB0" d="M38.913,22.584l5.596,13.992h-2.32l-1.433-3.755h-6.212l-1.433,3.755h-2.32l5.596-13.992H38.913z
			 M37.683,24.427h-0.068c-0.137,0.41-0.273,0.818-0.41,1.228c-0.046,0.092-0.75,1.912-2.116,5.461h5.119
			c-1.366-3.549-2.071-5.369-2.116-5.461c0-0.045-0.023-0.137-0.068-0.273C37.797,24.837,37.683,24.519,37.683,24.427z"/>
	</g>
</g>
</svg>
