<?xml version="1.0" encoding="utf-8"?>
<!-- Generator: Adobe Illustrator 17.0.0, SVG Export Plug-In . SVG Version: 6.00 Build 0)  -->
<!DOCTYPE svg PUBLIC "-//W3C//DTD SVG 1.1//EN" "http://www.w3.org/Graphics/SVG/1.1/DTD/svg11.dtd">
<svg version="1.1" id="图层_1" xmlns="http://www.w3.org/2000/svg" xmlns:xlink="http://www.w3.org/1999/xlink" x="0px" y="0px"
	 width="60px" height="60px" viewBox="0 0 60 60" enable-background="new 0 0 60 60" xml:space="preserve">
<g>
	<path fill="#DE2726" d="M47.408,28.935c0-9.599-7.809-17.408-17.408-17.408c-9.599,0-17.408,7.809-17.408,17.408
		c0,9.599,7.809,17.408,17.408,17.408C39.599,46.343,47.408,38.534,47.408,28.935z M30,43.28c-7.909,0-14.344-6.435-14.344-14.344
		S22.091,14.591,30,14.591c7.909,0,14.344,6.435,14.344,14.344S37.909,43.28,30,43.28z M43.767,11.237
		c-0.667-0.52-1.63-0.4-2.15,0.267c-0.52,0.667-0.4,1.63,0.267,2.15c4.749,3.699,7.473,9.269,7.473,15.281
		c0,6.075-2.77,11.68-7.599,15.379c-0.672,0.514-0.8,1.476-0.285,2.147c0.302,0.394,0.757,0.601,1.217,0.601
		c0.325,0,0.653-0.103,0.93-0.316c5.593-4.283,8.8-10.775,8.8-17.811C52.421,21.972,49.267,15.521,43.767,11.237z M18.241,44.314
		c-4.829-3.699-7.599-9.304-7.599-15.379c0-5.821,2.584-11.279,7.09-14.975c0.654-0.536,0.749-1.502,0.213-2.156
		c-0.536-0.654-1.501-0.75-2.156-0.213c-5.218,4.28-8.211,10.602-8.211,17.343c0,7.036,3.208,13.528,8.8,17.811
		c0.278,0.213,0.605,0.316,0.93,0.316c0.46,0,0.916-0.207,1.217-0.601C19.041,45.79,18.913,44.828,18.241,44.314z M28.188,38.777
		h3.741v-3.741h-3.741V38.777z M28.188,32.882h3.741l0.693-13.829h-5.127L28.188,32.882z"/>
</g>
</svg>
