<?xml version="1.0" encoding="utf-8"?>
<!-- Generator: Adobe Illustrator 17.0.0, SVG Export Plug-In . SVG Version: 6.00 Build 0)  -->
<!DOCTYPE svg PUBLIC "-//W3C//DTD SVG 1.1//EN" "http://www.w3.org/Graphics/SVG/1.1/DTD/svg11.dtd">
<svg version="1.1" id="图层_1" xmlns="http://www.w3.org/2000/svg" xmlns:xlink="http://www.w3.org/1999/xlink" x="0px" y="0px"
	 width="180px" height="60.25px" viewBox="0 0 180 60.25" enable-background="new 0 0 180 60.25" xml:space="preserve">
<g>
	<path fill="#87B22E" d="M101.397,25.113c1.634-2.401,2.739-5.189,3.243-8.075c0.522-2.447,0.588-4.996,0.15-7.43
		c1.326,5.307,0.26,11.271-2.721,15.9c0.143-0.046,0.283-0.093,0.417-0.143c11.568-4.495,2.478-19.361,2.478-19.361l-0.022,0.063
		C104.404,6.465,93.274,16.185,101.397,25.113z"/>
</g>
<g>
	<path fill="#83B12F" d="M110.887,31.548c-1.529-0.819-2.131-1.672-2.31-2.394c0.673-1.245,1.644-2.735,2.972-3.881
		c0.761-0.655,1.644-1.16,2.556-1.409c1.023-0.327,1.921-0.527,2.783-0.637c1.699-0.21,3.022-0.033,3.447,0.011
		c0.426,0.051,1.195,0.132,2.116,0.253c0.908,0.14,2.034,0.255,3.051,0.23c2.06,0.005,3.876-0.224,3.873-0.225
		c0.003,0.001-1.827,0.006-3.846-0.221c-1.029-0.092-2.028-0.301-2.945-0.526c-0.912-0.204-1.696-0.345-2.139-0.398
		c-0.838-0.08-5.692-0.915-9.69,1.95c-0.956,0.761-1.743,1.643-2.389,2.511c-0.39-0.466-0.8-1.209-0.58-2.132
		c0.385-1.609,2.587-5.951,8.498-6.201c5.91-0.25,11.018,2.703,13.903,3.16c2.885,0.458,4.654-0.71,4.654-0.71
		S125.027,36.604,110.887,31.548z"/>
</g>
<g>
	<path fill="#87B22E" d="M66.934,48.528H50.698v-20.74H66.65v3.849H55.388v4.504H65.9v3.849H55.388v4.879h11.546V48.528z"/>
	<path fill="#87B22E" d="M87.39,33.891l-4.504,1.031c-0.626-2.127-2.065-3.252-4.318-3.379c-3.19,0.189-4.879,2.41-5.065,6.663
		c0.186,4.256,1.875,6.539,5.065,6.853c2.567-0.062,4.067-1.598,4.507-4.599l4.504,1.406c-1.067,4.631-4.067,6.947-9.012,6.947
		c-6.38-0.316-9.729-3.849-10.039-10.607c0.31-6.758,3.659-10.323,10.039-10.698C83.075,27.694,86.014,29.823,87.39,33.891z"/>
	<path fill="#87B22E" d="M109.82,38.3c-0.375,6.696-3.787,10.228-10.228,10.603c-6.507-0.375-9.948-3.907-10.323-10.603
		c0.313-6.944,3.754-10.541,10.323-10.792C105.971,27.883,109.383,31.48,109.82,38.3z M104.66,38.3
		c-0.127-4.318-1.846-6.569-5.163-6.758c-3.379,0.189-5.16,2.44-5.349,6.758c0.124,4.256,1.875,6.474,5.254,6.663
		C102.781,44.84,104.533,42.619,104.66,38.3z"/>
</g>
</svg>
