<?xml version="1.0" encoding="utf-8"?>
<!-- Generator: Adobe Illustrator 17.0.0, SVG Export Plug-In . SVG Version: 6.00 Build 0)  -->
<!DOCTYPE svg PUBLIC "-//W3C//DTD SVG 1.1//EN" "http://www.w3.org/Graphics/SVG/1.1/DTD/svg11.dtd">
<svg version="1.1" id="图层_1" xmlns="http://www.w3.org/2000/svg" xmlns:xlink="http://www.w3.org/1999/xlink" x="0px" y="0px"
	 width="60px" height="60px" viewBox="0 0 60 60" enable-background="new 0 0 60 60" xml:space="preserve">
<path fill="#DE2726" d="M45.039,40.784c-0.828,0.971-1.306,1.478-2.31,1.478c-1.004,0-1.482-0.507-2.31-1.478
	c-0.857-1.006-2.03-2.384-4.27-2.384c-2.239,0-3.413,1.378-4.27,2.384c-0.828,0.971-1.306,1.478-2.31,1.478s-1.482-0.507-2.31-1.478
	c-0.857-1.006-2.03-2.384-4.27-2.384c-2.239,0-3.413,1.378-4.269,2.384c-0.828,0.971-1.306,1.478-2.31,1.478
	c-1.004,0-1.482-0.507-2.31-1.478c-0.857-1.006-2.03-2.384-4.269-2.384v2.575c1.004,0,1.482,0.507,2.31,1.478
	c0.857,1.006,2.03,2.384,4.269,2.384c2.239,0,3.413-1.378,4.27-2.384c0.828-0.972,1.306-1.478,2.309-1.478
	c1.004,0,1.482,0.507,2.31,1.478c0.857,1.006,2.03,2.384,4.27,2.384s3.413-1.378,4.27-2.384c0.828-0.971,1.306-1.478,2.31-1.478
	c1.004,0,1.483,0.507,2.31,1.479c0.857,1.006,2.03,2.383,4.27,2.383c2.24,0,3.413-1.378,4.27-2.384
	c0.828-0.971,1.306-1.478,2.31-1.478V38.4C47.069,38.4,45.895,39.778,45.039,40.784z M29.57,39.473c2.37,0,4.291-1.921,4.291-4.291
	c0-1.451-0.722-2.73-1.824-3.507v-5.573h2.143c0.606,0,1.102-0.496,1.102-1.102c0-0.606-0.496-1.102-1.102-1.102h-2.143v-1.808
	h2.143c0.606,0,1.102-0.496,1.102-1.102v0c0-0.606-0.496-1.102-1.102-1.102h-2.143v-1.808h2.143c0.606,0,1.102-0.496,1.102-1.102
	c0-0.606-0.496-1.102-1.102-1.102h-2.143v-2.038c0-1.357-1.11-2.467-2.467-2.467c-1.357,0-2.467,1.11-2.467,2.467v17.84
	c-1.102,0.777-1.824,2.057-1.824,3.507C25.279,37.552,27.2,39.473,29.57,39.473z M12.141,36.875c0.857,1.006,2.03,2.383,4.269,2.383
	c2.239,0,3.413-1.378,4.27-2.383c0.828-0.972,1.306-1.478,2.309-1.478c0.517,0,0.895,0.136,1.253,0.399
	c-0.023-0.202-0.036-0.406-0.036-0.614c0-0.736,0.149-1.437,0.417-2.076c-0.474-0.175-1.011-0.284-1.633-0.284
	c-2.239,0-3.413,1.378-4.269,2.384c-0.828,0.971-1.306,1.478-2.31,1.478c-1.004,0-1.482-0.507-2.31-1.478
	c-0.857-1.006-2.03-2.384-4.269-2.384v2.575C10.835,35.396,11.314,35.903,12.141,36.875z M45.039,35.205
	c-0.828,0.971-1.306,1.478-2.31,1.478c-1.004,0-1.482-0.507-2.31-1.478c-0.857-1.006-2.03-2.384-4.27-2.384
	c-0.621,0-1.158,0.109-1.632,0.284c0.268,0.639,0.417,1.34,0.417,2.076c0,0.207-0.013,0.411-0.036,0.612
	c0.357-0.262,0.734-0.397,1.25-0.397c1.004,0,1.483,0.507,2.31,1.479c0.857,1.006,2.03,2.383,4.27,2.383
	c2.24,0,3.413-1.378,4.27-2.383c0.828-0.971,1.306-1.478,2.31-1.478v-2.575C47.069,32.822,45.895,34.199,45.039,35.205z"/>
</svg>
