<?xml version="1.0" encoding="utf-8"?>
<!-- Generator: Adobe Illustrator 17.0.0, SVG Export Plug-In . SVG Version: 6.00 Build 0)  -->
<!DOCTYPE svg PUBLIC "-//W3C//DTD SVG 1.1//EN" "http://www.w3.org/Graphics/SVG/1.1/DTD/svg11.dtd">
<svg version="1.1" id="图层_1" xmlns="http://www.w3.org/2000/svg" xmlns:xlink="http://www.w3.org/1999/xlink" x="0px" y="0px"
	 width="60px" height="60px" viewBox="0 0 60 60" enable-background="new 0 0 60 60" xml:space="preserve">
<g>
	<g>
		<path fill="#0C6BB0" d="M43.443,37.829c-0.856-1.399-1.813-2.584-1.635-3.993c0.187-1.469,2.544-4.528,2.544-4.528
			c0.473-0.803,0.829-1.781,0.829-3.054c0-1.454-0.534-2.545-1.149-3.439c0,0-2.231-2.323-2.231-4.247
			c0-2.585,2.763-4.882,2.825-4.933c0.641-0.519,0.742-1.46,0.224-2.102c-0.519-0.643-1.461-0.745-2.105-0.226
			c-0.161,0.13-3.937,3.219-3.937,7.261c0,2.007,2.105,5.086,2.115,5.098c0.808,1.011,1.265,1.63,1.265,2.588
			c0,1.173-0.648,1.762-1.333,2.741c-2.047,2.922-2.018,5.273-2.018,5.273c0.17,1.982,1.157,3.632,2.04,5.102
			c0.226,0.377,1.791,2.456,1.341,4.176c-0.45,1.72-2.185,3.76-3.059,4.804c-0.532,0.633-0.449,1.577,0.184,2.108
			c0.28,0.235,0.622,0.35,0.962,0.35c0.427,0,0.851-0.182,1.147-0.534c0.355-0.423,3.275-3.986,3.682-7.182
			C45.133,43.093,45.411,41.048,43.443,37.829z"/>
	</g>
	<g>
		<path fill="#0C6BB0" d="M8.234,30.604c0,9.504,7.732,17.237,17.237,17.237c0.88,0,1.764-0.067,2.628-0.199
			c0.535-0.082,0.998-0.416,1.243-0.899c2.493-4.898,3.758-10.174,3.758-15.681c0-5.84-1.486-11.619-4.299-16.712
			c-0.262-0.473-0.735-0.792-1.272-0.856c-0.703-0.084-1.395-0.126-2.058-0.126C15.967,13.367,8.234,21.1,8.234,30.604z
			 M11.594,30.604c0-7.651,6.225-13.877,13.877-13.877c0.265,0,0.532,0.008,0.804,0.025c2.269,4.403,3.464,9.331,3.464,14.309
			c0,4.675-1.009,9.166-3.001,13.362c-0.421,0.038-0.845,0.057-1.267,0.057C17.82,44.481,11.594,38.256,11.594,30.604z
			 M51.686,17.518c0-0.928-0.752-1.68-1.68-1.68h-16.53c-0.928,0-1.68,0.752-1.68,1.68c0,0.928,0.752,1.68,1.68,1.68h16.53
			C50.934,19.198,51.686,18.446,51.686,17.518z M31.795,43.694c0,0.928,0.752,1.68,1.68,1.68h16.53c0.928,0,1.68-0.752,1.68-1.68
			c0-0.928-0.752-1.68-1.68-1.68h-16.53C32.547,42.014,31.795,42.767,31.795,43.694z M51.646,30.604c0-0.928-0.752-1.68-1.68-1.68
			H35.787c-0.928,0-1.68,0.752-1.68,1.68c0,0.928,0.752,1.68,1.68,1.68h14.178C50.894,32.284,51.646,31.532,51.646,30.604z"/>
	</g>
</g>
</svg>
