<?xml version="1.0" encoding="utf-8"?>
<!-- Generator: Adobe Illustrator 17.0.0, SVG Export Plug-In . SVG Version: 6.00 Build 0)  -->
<!DOCTYPE svg PUBLIC "-//W3C//DTD SVG 1.1//EN" "http://www.w3.org/Graphics/SVG/1.1/DTD/svg11.dtd">
<svg version="1.1" id="图层_1" xmlns="http://www.w3.org/2000/svg" xmlns:xlink="http://www.w3.org/1999/xlink" x="0px" y="0px"
	 width="60px" height="60px" viewBox="0 0 60 60" enable-background="new 0 0 60 60" xml:space="preserve">
<g>
	<path fill="#1A8C3B" d="M35.523,13.399c-0.657,0-1.343,0.042-2.039,0.125c-0.532,0.063-1.001,0.379-1.26,0.849
		c-2.787,5.047-4.26,10.774-4.26,16.562c0,5.458,1.253,10.686,3.724,15.541c0.243,0.478,0.702,0.809,1.232,0.891
		c0.856,0.131,1.732,0.198,2.604,0.198c9.419,0,17.082-7.663,17.082-17.082C52.605,21.062,44.942,13.399,35.523,13.399z
		 M35.523,44.233c-0.419,0-0.839-0.019-1.256-0.057c-1.974-4.158-2.974-8.609-2.974-13.242c0-4.934,1.185-9.818,3.433-14.181
		c0.269-0.016,0.533-0.025,0.796-0.025c7.583,0,13.752,6.169,13.752,13.752S43.105,44.233,35.523,44.233z M25.583,37.185
		l-5.125,1.206c-0.306-0.653-0.685-1.285-1.059-1.908c-0.832-1.385-1.617-2.694-1.617-4.093c0-0.068,0.008-0.129,0.012-0.194
		l7.932-2.104c0.889-0.236,1.418-1.148,1.182-2.036c-0.236-0.888-1.146-1.418-2.036-1.182l-4.577,1.214
		c0.466-0.791,0.817-1.755,0.817-3.009c0-1.432-0.526-2.507-1.132-3.388l7.402-1.919c0.89-0.231,1.425-1.139,1.194-2.03
		c-0.231-0.89-1.139-1.424-2.03-1.194l-8.549,2.217c-0.134-0.372-0.214-0.779-0.214-1.259c0-2.547,2.723-4.81,2.783-4.86
		c0.632-0.511,0.731-1.438,0.221-2.071c-0.511-0.634-1.439-0.734-2.073-0.223c-0.158,0.128-3.879,3.172-3.879,7.154
		c0,0.755,0.113,1.415,0.297,2.002L8.564,21.21c-0.89,0.231-1.425,1.139-1.194,2.03c0.194,0.75,0.87,1.247,1.61,1.247
		c0.139,0,0.279-0.017,0.419-0.054l7.488-1.941c0.01,0.012,0.02,0.025,0.029,0.037c0.796,0.996,1.246,1.606,1.246,2.55
		c0,1.155-0.551,1.804-1.314,2.701c-0.379,0.446-0.797,0.94-1.155,1.529l-7.14,1.894c-0.889,0.236-1.418,1.148-1.182,2.036
		c0.198,0.746,0.872,1.239,1.608,1.239c0.141,0,0.285-0.018,0.428-0.056l5.453-1.447c0.168,1.952,1.14,3.578,2.01,5.027
		c0.223,0.371,0.439,0.734,0.632,1.085L8.6,41.181c-0.895,0.211-1.45,1.107-1.239,2.002c0.18,0.767,0.864,1.284,1.619,1.284
		c0.126,0,0.254-0.014,0.383-0.045l8.487-1.997c-0.573,1.564-1.811,3.394-2.672,4.423c-0.524,0.624-0.443,1.554,0.181,2.077
		c0.276,0.232,0.613,0.345,0.947,0.345c0.42,0,0.838-0.179,1.13-0.526c0.35-0.417,3.226-3.927,3.628-7.075l5.282-1.243
		c0.895-0.211,1.45-1.107,1.239-2.002C27.375,37.53,26.482,36.976,25.583,37.185z"/>
</g>
</svg>
