<?xml version="1.0" encoding="utf-8"?>
<!-- Generator: Adobe Illustrator 17.0.0, SVG Export Plug-In . SVG Version: 6.00 Build 0)  -->
<!DOCTYPE svg PUBLIC "-//W3C//DTD SVG 1.1//EN" "http://www.w3.org/Graphics/SVG/1.1/DTD/svg11.dtd">
<svg version="1.1" id="图层_1" xmlns="http://www.w3.org/2000/svg" xmlns:xlink="http://www.w3.org/1999/xlink" x="0px" y="0px"
	 width="60px" height="60px" viewBox="0 0 60 60" enable-background="new 0 0 60 60" xml:space="preserve">
<g>
	<path fill="#0C6BB0" d="M35.851,13.442c-0.664,0-1.358,0.043-2.063,0.126c-0.538,0.064-1.013,0.384-1.275,0.858
		c-2.819,5.105-4.309,10.897-4.309,16.751c0,5.52,1.267,10.808,3.766,15.718c0.246,0.483,0.71,0.819,1.246,0.901
		c0.866,0.133,1.752,0.2,2.634,0.2c9.527,0,17.277-7.75,17.277-17.277S45.377,13.442,35.851,13.442z M35.851,44.628
		c-0.424,0-0.849-0.019-1.27-0.057c-1.996-4.205-3.008-8.707-3.008-13.393c0-4.99,1.199-9.929,3.473-14.343
		c0.272-0.017,0.539-0.025,0.805-0.025c7.669,0,13.909,6.24,13.909,13.909C49.76,38.388,43.52,44.628,35.851,44.628z M8.671,18.931
		h19.197c0.93,0,1.684-0.754,1.684-1.684c0-0.93-0.754-1.684-1.684-1.684H8.671c-0.93,0-1.684,0.754-1.684,1.684
		C6.987,18.177,7.741,18.931,8.671,18.931z M8.671,25.667h17.176c0.93,0,1.684-0.754,1.684-1.684c0-0.93-0.754-1.684-1.684-1.684
		H8.671c-0.93,0-1.684,0.754-1.684,1.684C6.987,24.913,7.741,25.667,8.671,25.667z M27.868,42.507H8.671
		c-0.93,0-1.684,0.754-1.684,1.684c0,0.93,0.754,1.684,1.684,1.684h19.197c0.93,0,1.684-0.754,1.684-1.684
		C29.552,43.261,28.798,42.507,27.868,42.507z M8.671,39.139h17.176c0.93,0,1.684-0.754,1.684-1.684c0-0.93-0.754-1.684-1.684-1.684
		H8.671c-0.93,0-1.684,0.754-1.684,1.684C6.987,38.385,7.741,39.139,8.671,39.139z M8.671,32.403h16.84
		c0.93,0,1.684-0.754,1.684-1.684c0-0.93-0.754-1.684-1.684-1.684H8.671c-0.93,0-1.684,0.754-1.684,1.684
		C6.987,31.649,7.741,32.403,8.671,32.403z"/>
</g>
</svg>
