<?xml version="1.0" encoding="utf-8"?>
<!-- Generator: Adobe Illustrator 17.0.0, SVG Export Plug-In . SVG Version: 6.00 Build 0)  -->
<!DOCTYPE svg PUBLIC "-//W3C//DTD SVG 1.1//EN" "http://www.w3.org/Graphics/SVG/1.1/DTD/svg11.dtd">
<svg version="1.1" id="图层_1" xmlns="http://www.w3.org/2000/svg" xmlns:xlink="http://www.w3.org/1999/xlink" x="0px" y="0px"
	 width="60px" height="60px" viewBox="0 0 60 60" enable-background="new 0 0 60 60" xml:space="preserve">
<g>
	<path fill="#1A8C3B" d="M35.636,11.516c-0.666,0-1.361,0.043-2.067,0.127c-0.539,0.064-1.015,0.384-1.277,0.86
		c-2.824,5.115-4.317,10.918-4.317,16.784c0,5.531,1.27,10.829,3.774,15.748c0.247,0.484,0.711,0.82,1.248,0.902
		c0.868,0.133,1.756,0.2,2.639,0.2c9.545,0,17.311-7.766,17.311-17.311C52.947,19.281,45.182,11.516,35.636,11.516z M35.636,42.763
		c-0.424,0-0.85-0.019-1.273-0.057c-2-4.214-3.014-8.724-3.014-13.419c0-4.999,1.201-9.949,3.479-14.371
		c0.273-0.017,0.54-0.025,0.807-0.025c7.684,0,13.936,6.252,13.936,13.936C49.573,36.511,43.321,42.763,35.636,42.763z
		 M24.843,27.871L8.308,32.257c-0.901,0.239-1.437,1.163-1.198,2.064c0.201,0.756,0.883,1.255,1.63,1.255
		c0.143,0,0.289-0.018,0.434-0.057l16.535-4.387c0.901-0.239,1.437-1.163,1.198-2.064C26.668,28.168,25.745,27.632,24.843,27.871z
		 M8.739,28.827c0.141,0,0.283-0.018,0.426-0.055l16.873-4.387c0.902-0.234,1.443-1.156,1.208-2.057
		c-0.234-0.902-1.157-1.443-2.057-1.208L8.316,25.506c-0.902,0.234-1.443,1.156-1.208,2.058C7.305,28.323,7.99,28.827,8.739,28.827z
		 M8.74,22.078c0.144,0,0.291-0.019,0.438-0.058l18.897-5.062c0.9-0.241,1.434-1.166,1.193-2.066
		c-0.241-0.9-1.164-1.434-2.067-1.193L8.304,18.76c-0.9,0.241-1.434,1.166-1.193,2.066C7.313,21.581,7.995,22.078,8.74,22.078z
		 M26.195,41.031L8.31,45.755c-0.901,0.238-1.438,1.161-1.2,2.062c0.2,0.757,0.883,1.257,1.63,1.257
		c0.142,0,0.287-0.018,0.432-0.056l17.885-4.724c0.901-0.238,1.438-1.161,1.2-2.062C28.019,41.331,27.1,40.793,26.195,41.031z
		 M8.739,42.325c0.141,0,0.283-0.018,0.426-0.055l16.873-4.387c0.902-0.234,1.443-1.156,1.208-2.058
		c-0.234-0.902-1.157-1.443-2.057-1.208L8.316,39.004c-0.902,0.234-1.443,1.156-1.208,2.057C7.305,41.821,7.99,42.325,8.739,42.325z
		"/>
</g>
</svg>
