<?xml version="1.0" encoding="utf-8"?>
<!-- Generator: Adobe Illustrator 17.0.0, SVG Export Plug-In . SVG Version: 6.00 Build 0)  -->
<!DOCTYPE svg PUBLIC "-//W3C//DTD SVG 1.1//EN" "http://www.w3.org/Graphics/SVG/1.1/DTD/svg11.dtd">
<svg version="1.1" id="图层_1" xmlns="http://www.w3.org/2000/svg" xmlns:xlink="http://www.w3.org/1999/xlink" x="0px" y="0px"
	 width="60px" height="60px" viewBox="0 0 60 60" enable-background="new 0 0 60 60" xml:space="preserve">
<g>
	<path fill="#F1AB40" d="M17.501,13.449c0.083,0.002,0.16,0,0.234-0.003c-0.315,0.512-0.559,1.054-0.724,1.621
		c-0.601,2.061-0.583,4.964,0.054,7.183c0.253,0.882,1.03,1.518,1.939,1.623v1.581c0,0.411,0.336,0.747,0.747,0.747h3.128
		c0.411,0,0.747-0.336,0.747-0.747v-1.564H37.49v1.564c0,0.411,0.336,0.747,0.747,0.747h3.128c0.411,0,0.747-0.336,0.747-0.747
		v-1.588c0.802-0.113,1.492-0.639,1.806-1.408c0.871-2.126,0.83-5.216-0.121-7.739c-0.17-0.452-0.393-0.884-0.658-1.293
		c0.14,0.019,0.295,0.028,0.475,0.024c1.427-0.027,2.584-0.522,2.584-1.167c0-0.645-1.157-1.167-2.584-1.167
		c-0.794,0-1.487,0.217-1.869,0.49l-2.688-3.393c-0.498-0.629-1.245-0.99-2.047-0.99H23.862c-0.803,0-1.549,0.361-2.047,0.99
		l-2.608,3.291c-0.4-0.223-1.014-0.389-1.707-0.389c-1.427,0-2.584,0.522-2.584,1.167C14.917,12.927,16.074,13.422,17.501,13.449z
		 M18.982,13.356l3.596-4.538c0.313-0.395,0.781-0.621,1.285-0.621H37.01c0.504,0,0.972,0.226,1.285,0.621l3.69,4.657
		C42.439,14.548,18.562,14.509,18.982,13.356z M18.575,34.593c0-2.117,10.084-1.147,10.084-4.323c0-3.176-9.046-2.695-9.046-2.695
		s4.226,0.401,4.162,2.294c-0.072,2.124-10.539,1.147-10.539,4.323c0,3.176,10.084,3.441,10.084,3.441S18.575,36.711,18.575,34.593z
		 M37.857,27.575c0,0,4.227,0.401,4.162,2.294c-0.072,2.124-10.539,1.147-10.539,4.323c0,3.176,10.084,3.441,10.084,3.441
		s-4.746-0.922-4.746-3.039c0-2.117,10.084-1.147,10.084-4.323C46.903,27.094,37.857,27.575,37.857,27.575z M37.795,52.522h2.959
		v-3.563l0.56-0.56h3.161v-2.593h-3.161l-0.56-0.56v-1.143l0.56-0.56h4.282v-2.959h-7.801V52.522z M17.398,40.583L15.94,42.04v9.025
		l1.457,1.457h6.546l1.457-1.457V42.04l-1.457-1.457H17.398z M22.441,49.002l-0.56,0.56H19.46l-0.56-0.56v-4.9l0.56-0.56h2.421
		l0.56,0.56V49.002z M27.708,52.522h2.959v-3.563l0.56-0.56h3.161v-2.593h-3.161l-0.56-0.56v-1.143l0.56-0.56h4.282v-2.959h-7.801
		V52.522z"/>
</g>
</svg>
