<?xml version="1.0" encoding="utf-8"?>
<!-- Generator: Adobe Illustrator 17.0.0, SVG Export Plug-In . SVG Version: 6.00 Build 0)  -->
<!DOCTYPE svg PUBLIC "-//W3C//DTD SVG 1.1//EN" "http://www.w3.org/Graphics/SVG/1.1/DTD/svg11.dtd">
<svg version="1.1" id="图层_1" xmlns="http://www.w3.org/2000/svg" xmlns:xlink="http://www.w3.org/1999/xlink" x="0px" y="0px"
	 width="60px" height="60px" viewBox="0 0 60 60" enable-background="new 0 0 60 60" xml:space="preserve">
<path fill="#1A8C3B" d="M20.624,18.299c-0.356,0-0.726,0.029-1.101,0.087c-0.412,0.063-0.776,0.377-0.976,0.843
	c-1.471,3.417-2.248,7.295-2.248,11.214c0,3.695,0.661,7.235,1.965,10.522c0.189,0.475,0.544,0.804,0.954,0.885
	c0.463,0.091,0.936,0.137,1.407,0.137c5.09,0,9.23-5.313,9.23-11.844C29.854,23.612,25.713,18.299,20.624,18.299z M20.624,38.678
	c-0.121,0-0.242-0.004-0.362-0.013c-0.919-2.59-1.385-5.351-1.385-8.222c0-3.066,0.554-6.1,1.608-8.832
	c3.729-0.101,6.79,3.767,6.79,8.533C27.275,34.849,24.291,38.678,20.624,38.678z M41.725,19.3c-0.188-0.475-0.543-0.804-0.954-0.885
	c-0.463-0.091-0.936-0.137-1.407-0.137c-5.09,0-9.23,5.313-9.23,11.844c0,6.531,4.14,11.844,9.23,11.844
	c0.356,0,0.726-0.029,1.101-0.087c0.412-0.063,0.776-0.377,0.976-0.843c1.471-3.417,2.248-7.295,2.248-11.214
	C43.69,26.127,43.029,22.586,41.725,19.3z M39.504,38.655c-0.047,0.001-0.093,0.002-0.139,0.002c-3.668,0-6.651-3.829-6.651-8.535
	c0-4.706,2.984-8.535,6.651-8.535c0.121,0,0.242,0.004,0.363,0.013c0.919,2.589,1.384,5.351,1.384,8.222
	C41.111,32.888,40.557,35.923,39.504,38.655z M53.78,28.346h-7.716c-0.712,0-1.289,0.741-1.289,1.654
	c0,0.914,0.577,1.654,1.289,1.654h7.716c0.712,0,1.289-0.741,1.289-1.654C55.069,29.086,54.492,28.346,53.78,28.346z M51.729,17.166
	l-7.255,2.627c-0.67,0.242-0.96,1.135-0.649,1.995c0.311,0.859,1.106,1.359,1.776,1.117l7.255-2.627
	c0.67-0.242,0.96-1.135,0.649-1.995C53.194,17.424,52.399,16.924,51.729,17.166z M53.749,41.717c0.311-0.859,0.02-1.752-0.649-1.995
	l-7.255-2.627c-0.67-0.242-1.465,0.258-1.776,1.117c-0.311,0.859-0.02,1.752,0.649,1.995l7.255,2.627
	C52.643,43.076,53.438,42.576,53.749,41.717z M4.931,30c0,0.914,0.577,1.654,1.289,1.654h7.716c0.712,0,1.289-0.741,1.289-1.654
	c0-0.914-0.577-1.654-1.289-1.654H6.22C5.508,28.346,4.931,29.086,4.931,30z M6.495,18.283c-0.311,0.859-0.02,1.752,0.649,1.995
	l7.255,2.627c0.67,0.242,1.465-0.258,1.776-1.117c0.311-0.859,0.02-1.752-0.649-1.995l-7.255-2.627
	C7.601,16.924,6.806,17.424,6.495,18.283z M8.027,42.834l7.255-2.627c0.67-0.242,0.96-1.135,0.649-1.995
	c-0.311-0.859-1.106-1.359-1.776-1.117L6.9,39.722c-0.67,0.242-0.96,1.135-0.649,1.995C6.562,42.576,7.357,43.076,8.027,42.834z"/>
</svg>
