<?xml version="1.0" encoding="utf-8"?>
<!-- Generator: Adobe Illustrator 17.0.0, SVG Export Plug-In . SVG Version: 6.00 Build 0)  -->
<!DOCTYPE svg PUBLIC "-//W3C//DTD SVG 1.1//EN" "http://www.w3.org/Graphics/SVG/1.1/DTD/svg11.dtd">
<svg version="1.1" id="图层_1" xmlns="http://www.w3.org/2000/svg" xmlns:xlink="http://www.w3.org/1999/xlink" x="0px" y="0px"
	 width="60px" height="60px" viewBox="0 0 60 60" enable-background="new 0 0 60 60" xml:space="preserve">
<g>
	<path fill="#F1AB40" d="M23.579,31.155c0,0,2.214-7.375,10.165-7.375s10.624,6.481,11.493,7.684l3.215,0.538
		c0,0,0.709,0.11,0.327,0.465c-0.382,0.355-3.824,1.152-3.824,1.152s-0.533,0.231-0.325,0.406c0.515,0.434,2.067,1.292,1.877,3.052
		c-0.079,0.408-0.356,0.731-0.74,0.971l-3.58,0.02c-0.949,0-0.766-0.408-0.424-0.991c0.335-0.681,1.203-1.604-0.735-1.604
		s-16.036,0.401-16.036,0.401s-0.01,2.188-1.948,2.188s-2.94,0-2.94,0s-1.074,0.187-0.272-1.55c0.589-1.276,1.968-1.809,2.663-1.914
		c0.463-0.07,0.42-0.446,0.149-0.726c0,0-1.459-1.339-5.468-2.007s-6.348-3.007-5.212-4.076s3.541-2.673,6.348-1.403
		c2.806,1.27,3.675,4.41,3.675,4.41L23.579,31.155z"/>
	<path fill="#F8B62D" d="M30,52.026c-12.177,0-22.085-9.908-22.085-22.086S17.823,7.855,30,7.855s22.085,9.907,22.085,22.085
		S42.177,52.026,30,52.026z M30,10.452c-10.745,0-19.488,8.742-19.488,19.488S19.255,49.429,30,49.429s19.488-8.743,19.488-19.489
		S40.745,10.452,30,10.452z"/>
</g>
</svg>
