<?xml version="1.0" encoding="utf-8"?>
<!-- Generator: Adobe Illustrator 17.0.0, SVG Export Plug-In . SVG Version: 6.00 Build 0)  -->
<!DOCTYPE svg PUBLIC "-//W3C//DTD SVG 1.1//EN" "http://www.w3.org/Graphics/SVG/1.1/DTD/svg11.dtd">
<svg version="1.1" id="图层_1" xmlns="http://www.w3.org/2000/svg" xmlns:xlink="http://www.w3.org/1999/xlink" x="0px" y="0px"
	 width="60px" height="60px" viewBox="0 0 60 60" enable-background="new 0 0 60 60" xml:space="preserve">
<g>
	<path fill="#DE2726" d="M35.124,19.191c-0.563-0.112-1.126-0.202-1.688-0.273c-0.514-0.065-0.918-0.468-0.986-0.981l-0.063-0.473
		c2.142-0.7,3.68-2.735,3.624-5.124c-0.064-2.716-2.259-4.983-4.973-5.127c-3.035-0.161-5.546,2.253-5.546,5.253
		c0,2.334,1.521,4.31,3.625,4.998l-0.056,0.42c-0.069,0.52-0.483,0.925-1.004,0.983c-1.423,0.156-2.841,0.45-4.253,0.885
		c-1.589,0.49-2.74,1.873-2.936,3.524l-2.49,10.791C22.391,29.766,28.055,24.34,35.124,19.191z M17.9,38.317
		c8.062-2.879,18.523-2.657,26.253,0.2l-3.636-15.191c-0.169-1.42-1.043-2.649-2.297-3.269C28.988,26.514,22.044,33.593,17.9,38.317
		z M38.219,20.056c1.964-1.374,4.031-2.72,6.198-4.009c0.594-0.354,0.79-1.122,0.436-1.717c-0.353-0.594-1.122-0.79-1.717-0.436
		c-2.84,1.689-5.514,3.476-8.013,5.296c0.818,0.162,1.637,0.365,2.459,0.612C37.804,19.869,38.016,19.956,38.219,20.056z
		 M48.277,41.015c-1.272-0.936-2.647-1.741-4.115-2.416c0.027,0.264,0.107,1.144,0.078,2.174l-1.052-0.403
		c-7.63-2.922-15.976-2.931-24.804-0.024l-1.16,0.382l0.136,1.213c0.091,0.81,0.985,7.984,4.412,10.553
		c0.27,0.203,0.587,0.301,0.9,0.301c0.457,0,0.908-0.208,1.204-0.601c0.498-0.664,0.364-1.606-0.301-2.104
		c-1.545-1.158-2.597-4.672-3.05-7.266c7.279-2.174,14.156-2.19,20.478-0.047c-0.352,2.244-1.226,5.965-2.808,7.403
		c-0.614,0.558-0.66,1.509-0.101,2.123c0.558,0.614,1.509,0.66,2.123,0.101c3.094-2.813,3.853-9.707,3.929-10.484l0.081-0.822
		c-0.005,0.104-0.011,0.209-0.019,0.314c0.886,0.47,1.75,1.006,2.585,1.621c0.224,0.164,0.484,0.244,0.741,0.244
		c0.385,0,0.764-0.177,1.01-0.51C48.953,42.209,48.834,41.425,48.277,41.015z M17.225,39.018c0-0.251,1.152-4.951,1.152-4.951
		c-4.457,4.775-6.881,8.161-6.934,8.236c-0.4,0.565-0.266,1.346,0.299,1.746c0.22,0.155,0.472,0.23,0.723,0.23
		c0.393,0,0.779-0.184,1.023-0.529c0.027-0.038,0.408-0.673,1.467-2.017c0.182-0.074,0.995-0.396,2.278-0.81
		C17.156,40.269,17.225,39.519,17.225,39.018z"/>
</g>
</svg>
