<?xml version="1.0" encoding="utf-8"?>
<!-- Generator: Adobe Illustrator 17.0.0, SVG Export Plug-In . SVG Version: 6.00 Build 0)  -->
<!DOCTYPE svg PUBLIC "-//W3C//DTD SVG 1.1//EN" "http://www.w3.org/Graphics/SVG/1.1/DTD/svg11.dtd">
<svg version="1.1" id="图层_1" xmlns="http://www.w3.org/2000/svg" xmlns:xlink="http://www.w3.org/1999/xlink" x="0px" y="0px"
	 width="180px" height="60.25px" viewBox="0 0 180 60.25" enable-background="new 0 0 180 60.25" xml:space="preserve">
<g>
	<g>
		<path fill="#E83828" d="M36.939,33.867l4.604-0.846c0.376,2.819,1.941,4.228,4.698,4.228c2.067-0.06,3.163-0.876,3.289-2.443
			c0-1.188-0.721-2.067-2.161-2.631c-1.503-0.5-2.882-0.906-4.134-1.221c-3.822-0.812-5.669-2.785-5.544-5.919
			c0.376-3.507,2.913-5.386,7.611-5.637c4.886-0.06,7.767,1.879,8.644,5.825l-4.604,0.94c-0.314-2.067-1.597-3.101-3.852-3.101
			c-1.817,0.064-2.789,0.721-2.913,1.973c-0.126,1.191,1.096,2.067,3.664,2.631c1.815,0.376,3.445,0.94,4.886,1.691
			c2.191,1.127,3.319,2.882,3.382,5.262c-0.188,4.007-2.913,6.074-8.174,6.201C41.01,40.88,37.879,38.565,36.939,33.867z"/>
		<path fill="#E83828" d="M65.033,33.115h-3.476v7.329h-4.698V19.679h8.644c5.01,0.128,7.611,2.319,7.799,6.577
			C73.363,30.83,70.606,33.115,65.033,33.115z M64.657,23.344h-3.101v6.201h3.101c2.443-0.06,3.695-1.094,3.758-3.101
			C68.351,24.441,67.1,23.407,64.657,23.344z"/>
		<path fill="#E83828" d="M123.492,40.35h-5.919l-5.074-7.986h-2.725v8.08h-4.698V19.679h9.49c5.074,0.128,7.705,2.195,7.892,6.201
			c0.062,3.446-1.629,5.513-5.074,6.201L123.492,40.35z M113.814,23.344h-4.04v5.544h4.04c2.505,0,3.726-0.906,3.664-2.725
			C117.603,24.223,116.382,23.283,113.814,23.344z"/>
		<path fill="#E83828" d="M142.566,23.532h-6.671v16.912h-4.792V23.532h-6.765v-3.852h18.228V23.532z"/>
	</g>
	<g>
		<path fill="#E83828" d="M89.707,44.249c-0.315,0-0.617-0.094-0.93-0.289c-1.505-0.946-4.22-2.997-4.22-2.997l2.151-2.678
			c0,0,1.976,1.51,3.057,2.221c0.3-0.221,0.74-0.56,1.383-1.081c2.319-1.782,4.159-3.5,5.711-5.305
			c3.52-4.084,4.602-7.49,3.215-10.117c-0.76-1.436-2.25-2.446-3.987-2.698c-1.602-0.242-3.106,0.235-4.132,1.285
			c-0.253,0.258-0.48,0.54-0.685,0.839l-0.508,0.742l-1.943,0.087l-0.664-0.805c-0.005-0.007-0.173-0.228-0.841-0.832
			c-1.087-0.99-2.488-1.413-3.973-1.208c-1.611,0.215-3.077,1.141-3.924,2.473c-0.544,0.856-0.799,2.946-0.799,2.946l-3.436,0.067
			c0,0,0.428-3.429,1.336-4.859c1.383-2.178,3.765-3.684,6.369-4.033c2.478-0.315,4.919,0.416,6.708,2.04
			c0.007,0.01,0.015,0.017,0.022,0.023c1.799-1.762,4.33-2.547,6.965-2.164c2.82,0.409,5.262,2.091,6.53,4.493
			c2.114,4.003,0.888,8.701-3.648,13.963c-1.706,1.983-3.721,3.869-5.99,5.601C91.713,43.394,90.658,44.249,89.707,44.249z"/>
		<polygon fill="#E83828" points="88.963,40.112 85.465,30.937 82.232,39.115 79.702,32.88 75.841,32.88 75.841,29.444 
			82.017,29.444 82.192,29.874 85.522,21.448 89.165,30.998 89.982,29.112 95.017,29.3 94.89,32.736 92.2,32.635 		"/>
	</g>
</g>
</svg>
