<?xml version="1.0" encoding="utf-8"?>
<!-- Generator: Adobe Illustrator 17.0.0, SVG Export Plug-In . SVG Version: 6.00 Build 0)  -->
<!DOCTYPE svg PUBLIC "-//W3C//DTD SVG 1.1//EN" "http://www.w3.org/Graphics/SVG/1.1/DTD/svg11.dtd">
<svg version="1.1" id="图层_1" xmlns="http://www.w3.org/2000/svg" xmlns:xlink="http://www.w3.org/1999/xlink" x="0px" y="0px"
	 width="180px" height="60.25px" viewBox="0 0 180 60.25" enable-background="new 0 0 180 60.25" xml:space="preserve">
<g>
	<path fill="#2EA7E0" d="M8.267,33.926l4.657-0.855c0.38,2.851,1.965,4.276,4.752,4.276c2.091-0.061,3.201-0.886,3.326-2.471
		c0-1.201-0.73-2.091-2.186-2.661c-1.52-0.506-2.915-0.916-4.181-1.235c-3.866-0.821-5.732-2.817-5.607-5.987
		c0.38-3.547,2.946-5.447,7.697-5.702c4.942-0.061,7.857,1.901,8.743,5.892l-4.657,0.95c-0.316-2.091-1.616-3.136-3.896-3.136
		c-1.836,0.064-2.82,0.73-2.946,1.996c-0.126,1.205,1.11,2.091,3.706,2.661c1.836,0.38,3.486,0.95,4.942,1.711
		c2.216,1.14,3.357,2.915,3.421,5.322c-0.19,4.052-2.946,6.143-8.268,6.272C12.384,41.02,9.217,38.678,8.267,33.926z"/>
	<path fill="#2EA7E0" d="M46.185,23.473h-6.747v17.106h-4.847V23.473h-6.842v-3.896h18.436V23.473z"/>
	<path fill="#2EA7E0" d="M68.327,40.579H63.1l-1.52-4.561h-7.983l-1.52,4.561h-5.132l7.793-21.002h5.702L68.327,40.579z
		 M60.724,32.406l-2.661-7.222c-0.19-0.631-0.35-1.235-0.475-1.806h-0.095c-0.064,0.509-0.221,1.14-0.475,1.901l-2.376,7.127H60.724
		z"/>
	<path fill="#2EA7E0" d="M88.568,40.579h-4.847l-8.268-13.114c-0.57-0.95-0.95-1.616-1.14-1.996c0.064,0.95,0.095,2.155,0.095,3.611
		v11.499h-4.466V19.577h5.132l7.983,12.924c0.57,0.825,0.95,1.52,1.14,2.091v-0.095c-0.064-0.696-0.095-1.772-0.095-3.231V19.577
		h4.466V40.579z"/>
	<path fill="#2EA7E0" d="M98.547,40.579h-6.842V19.577h6.557c7.538,0.064,11.373,3.516,11.499,10.358
		C110.015,37.286,106.275,40.83,98.547,40.579z M98.167,23.473h-1.616v13.399h1.616c4.436,0.064,6.622-2.247,6.557-6.937
		C104.598,25.693,102.412,23.537,98.167,23.473z"/>
	<path fill="#2EA7E0" d="M131.903,40.579h-5.227l-1.521-4.561h-7.983l-1.521,4.561h-5.132l7.793-21.002h5.702L131.903,40.579z
		 M124.3,32.406l-2.661-7.222c-0.19-0.631-0.35-1.235-0.475-1.806h-0.095c-0.064,0.509-0.221,1.14-0.475,1.901l-2.376,7.127H124.3z"
		/>
	<path fill="#2EA7E0" d="M152.144,40.484h-5.987l-5.132-8.078h-2.756v8.173h-4.752V19.577h9.598c5.132,0.129,7.793,2.22,7.983,6.272
		c0.064,3.486-1.646,5.576-5.132,6.272L152.144,40.484z M142.356,23.283h-4.086v5.607h4.086c2.535,0,3.771-0.916,3.706-2.756
		C146.188,24.172,144.952,23.222,142.356,23.283z"/>
	<path fill="#2EA7E0" d="M160.507,40.579h-6.842V19.577h6.557c7.538,0.064,11.373,3.516,11.499,10.358
		C171.975,37.286,168.235,40.83,160.507,40.579z M160.127,23.473h-1.616v13.399h1.616c4.436,0.064,6.622-2.247,6.557-6.937
		C166.558,25.693,164.373,23.537,160.127,23.473z"/>
</g>
</svg>
