<?xml version="1.0" encoding="utf-8"?>
<!-- Generator: Adobe Illustrator 17.0.0, SVG Export Plug-In . SVG Version: 6.00 Build 0)  -->
<!DOCTYPE svg PUBLIC "-//W3C//DTD SVG 1.1//EN" "http://www.w3.org/Graphics/SVG/1.1/DTD/svg11.dtd">
<svg version="1.1" id="图层_1" xmlns="http://www.w3.org/2000/svg" xmlns:xlink="http://www.w3.org/1999/xlink" x="0px" y="0px"
	 width="60px" height="60px" viewBox="0 0 60 60" enable-background="new 0 0 60 60" xml:space="preserve">
<g>
	<g>
		<path fill="#1A8C3B" d="M13.996,34.74v16.752H9.314V12.033h13.498c3.917,0,6.957,0.944,9.117,2.833
			c2.163,1.888,3.243,4.588,3.243,8.1c0,3.558-1.264,6.442-3.792,8.649c-2.528,2.21-5.69,3.251-9.479,3.126H13.996z M13.996,16.153
			V30.62h7.53c2.853,0,5.022-0.645,6.505-1.931c1.483-1.289,2.225-3.134,2.225-5.537c0-4.666-2.762-6.999-8.287-6.999H13.996z"/>
	</g>
	<path fill="#1A8C3B" d="M50.007,21.934h-9.728c-0.898,0-1.626,0.934-1.626,2.086c0,1.152,0.728,2.086,1.626,2.086h9.728
		c0.898,0,1.626-0.934,1.626-2.086C51.633,22.868,50.905,21.934,50.007,21.934z"/>
	<path fill="#1A8C3B" d="M45.601,8.416l-9.147,3.311c-0.844,0.306-1.211,1.431-0.819,2.515c0.392,1.083,1.394,1.714,2.239,1.408
		l9.147-3.311c0.844-0.306,1.211-1.431,0.819-2.515C47.447,8.741,46.445,8.11,45.601,8.416z"/>
	<path fill="#1A8C3B" d="M47.839,37.546c0.392-1.083,0.026-2.209-0.819-2.515l-9.147-3.311c-0.844-0.306-1.846,0.325-2.239,1.408
		c-0.392,1.083-0.026,2.209,0.819,2.515l9.147,3.311C46.445,39.26,47.447,38.629,47.839,37.546z"/>
</g>
</svg>
