<?xml version="1.0" encoding="utf-8"?>
<!-- Generator: Adobe Illustrator 17.0.0, SVG Export Plug-In . SVG Version: 6.00 Build 0)  -->
<!DOCTYPE svg PUBLIC "-//W3C//DTD SVG 1.1//EN" "http://www.w3.org/Graphics/SVG/1.1/DTD/svg11.dtd">
<svg version="1.1" id="图层_1" xmlns="http://www.w3.org/2000/svg" xmlns:xlink="http://www.w3.org/1999/xlink" x="0px" y="0px"
	 width="60px" height="60px" viewBox="0 0 60 60" enable-background="new 0 0 60 60" xml:space="preserve">
<path fill="#00A0E9" d="M33.423,24.291V10.477c0-1.127-0.767-2.049-1.704-2.049H13.171c-0.938,0-1.704,0.922-1.704,2.049v37.759
	H9.046v3.337h26.798v-3.337h-2.421V27.509c0,0,2.275-0.306,2.421,2.171c0.146,2.477,0,11.438,0,11.438s0.291,6.265,6.921,6.265
	s7.358-5.173,7.139-7.432L47.5,22.468l2.437-1.384c0,0-1.547-4.808-5.161-7.722s-9.005-4.934-9.005-4.934v3.477
	c0,0,5.537,2.259,7.213,5.392c0,0,1.475,5.039,1.764,7.867c0.429,4.197,2.315,14.133,2.023,16.027
	c-0.291,1.894-1.603,3.351-3.715,3.424c-2.113,0.073-3.788-1.603-3.861-2.914c-0.073-1.311,0-12.312,0-12.312
	s-0.073-2.186-1.603-3.424C36.063,24.727,33.423,24.291,33.423,24.291z M30.582,22.125c0,0.751-0.511,1.366-1.136,1.366H15.444
	c-0.625,0-1.136-0.615-1.136-1.366v-9.292c0-0.751,0.511-1.366,1.136-1.366h14.002c0.625,0,1.136,0.615,1.136,1.366V22.125z"/>
</svg>
