<?xml version="1.0" encoding="utf-8"?>
<!-- Generator: Adobe Illustrator 17.0.0, SVG Export Plug-In . SVG Version: 6.00 Build 0)  -->
<!DOCTYPE svg PUBLIC "-//W3C//DTD SVG 1.1//EN" "http://www.w3.org/Graphics/SVG/1.1/DTD/svg11.dtd">
<svg version="1.1" id="图层_1" xmlns="http://www.w3.org/2000/svg" xmlns:xlink="http://www.w3.org/1999/xlink" x="0px" y="0px"
	 width="60px" height="60px" viewBox="0 0 60 60" enable-background="new 0 0 60 60" xml:space="preserve">
<g>
	<path fill="#F1AB40" d="M27.779,37.637h4.879v-4.879h-4.879V37.637z M32.658,29.949l0.904-18.036h-6.686l0.904,18.036H32.658z
		 M47.22,16.591c-1.315-1.451-2.616-2.664-2.616-5.678l-3.996-0.028c0,5.423,3.657,8.25,4.532,9.35
		c2.023,2.542,3.709,7.108,3.709,11.184c0,5.834-1.072,7.513-2.923,8.444c-2.673,1.343-7.746,1.44-15.784,1.44
		c-7.476,0-12.586-0.101-15.402-1.455c-2.041-0.981-3.306-2.733-3.306-8.428c0-4.337,1.517-8.563,4.279-11.909
		c0.116-0.142,2.835-3.528,2.86-8.556l-3.996-0.069c0,3.595-1.947,6.083-1.952,6.09c-3.344,4.052-5.186,9.181-5.186,14.444
		c0,4.624,0.662,9.67,5.57,12.029c0.104,0.05,0.21,0.099,0.317,0.146c0.238,0.105,0.388,0.344,0.386,0.604
		c-0.002,0.499-0.005,3.83-0.005,3.83l4.878,0v-2.917c0.336,0.021,4.591,0.041,4.943,0.058v2.859l4.696,0v-2.731
		c0.245,0,3.001,0.001,3.252,0.001c0.1,0,1.146,0,1.245,0v2.73l4.531,0v-2.808c0.35-0.012,4.53-0.026,4.867-0.042v2.768l4.017,0
		V44.61c0-0.303,0.194-0.566,0.478-0.671c4.298-1.589,6.232-5.036,6.232-12.519C52.846,26.362,50.093,19.761,47.22,16.591z"/>
</g>
</svg>
